<svg width="18" height="18" viewBox="0 0 18 18" fill="none" xmlns="http://www.w3.org/2000/svg">
<path d="M12.4872 17V14.0552C12.518 13.6923 12.4651 13.3276 12.3321 12.9852C12.1991 12.6427 11.9891 12.3305 11.7159 12.0691C14.2923 11.8028 17 10.8973 17 6.74261C16.9998 5.68022 16.5591 4.65856 15.7692 3.88911C16.1433 2.95963 16.1168 1.93225 15.6954 1.02039C15.6954 1.02039 14.7272 0.754061 12.4872 2.14657C10.6066 1.67389 8.6242 1.67389 6.74359 2.14657C4.50359 0.754061 3.53538 1.02039 3.53538 1.02039C3.11395 1.93225 3.0875 2.95963 3.46154 3.88911C2.66575 4.66427 2.22463 5.69516 2.23077 6.76544C2.23077 10.8897 4.93846 11.7952 7.51487 12.092C7.24492 12.3507 7.03673 12.6592 6.90384 12.9974C6.77096 13.3357 6.71636 13.6961 6.74359 14.0552V17M6.74359 14.7172C2.64103 15.8586 2.64103 12.8149 1 12.4344L6.74359 14.7172Z" stroke="#F9F9F9" stroke-width="2" stroke-linecap="round" stroke-linejoin="round"/>
</svg>
